<svg width="24" height="24" viewBox="0 0 24 24" fill="none" xmlns="http://www.w3.org/2000/svg">
<path d="M11.9799 17.45C16.0392 17.45 19.3299 14.1593 19.3299 10.1C19.3299 6.04071 16.0392 2.75 11.9799 2.75C7.9206 2.75 4.62988 6.04071 4.62988 10.1C4.62988 14.1593 7.9206 17.45 11.9799 17.45Z" stroke="#1B5F4A" stroke-width="1.5" stroke-linecap="round" stroke-linejoin="round"/>
<path d="M6 14.5L3.5 18.77L6.45001 18.61L7.79001 21.24L10 17.5C8.33 17.07 6.99 15.86 6 14.5Z" stroke="#1B5F4A" stroke-width="1.5" stroke-linecap="round" stroke-linejoin="round"/>
<path d="M18 14.5C17.02 15.87 15.67 17.06 14 17.5L16.21 21.25L17.55 18.62L20.5 18.78L18 14.5Z" stroke="#1B5F4A" stroke-width="1.5" stroke-linecap="round" stroke-linejoin="round"/>
<path d="M16.18 9.17048C16.37 8.99048 16.26 8.66047 16 8.63047L13.59 8.28046C13.49 8.26046 13.4 8.20047 13.35 8.10047L12.27 5.91047C12.15 5.67047 11.81 5.67047 11.7 5.91047L10.62 8.10047C10.57 8.19047 10.48 8.26046 10.38 8.28046L7.96998 8.63047C7.70998 8.67047 7.60998 8.99048 7.78998 9.17048L9.53998 10.8705C9.61998 10.9505 9.64998 11.0505 9.62998 11.1505L9.21998 13.5505C9.16998 13.8105 9.44997 14.0105 9.67997 13.8805L11.84 12.7505C11.93 12.7005 12.05 12.7005 12.14 12.7505L14.3 13.8805C14.53 14.0005 14.81 13.8005 14.76 13.5505L14.35 11.1505C14.33 11.0505 14.37 10.9405 14.44 10.8705L16.18 9.17048Z" stroke="#1B5F4A" stroke-width="1.5" stroke-linecap="round" stroke-linejoin="round"/>
</svg>
