<svg width="24" height="24" viewBox="0 0 24 24" fill="none" xmlns="http://www.w3.org/2000/svg">
<path d="M12.0002 2.75C12.3302 2.75 12.6602 2.87001 12.9202 3.10001C13.8102 3.89001 15.2702 5.41999 16.2702 7.54999C16.4802 7.99999 16.6702 8.47 16.8302 8.97C16.9602 9.39 17.0702 9.80999 17.1602 10.24C17.6302 12.55 17.1102 14.94 16.3802 17.14C16.1002 18 15.8802 18.99 15.3702 19.75C15.3402 19.79 15.3202 19.83 15.3002 19.86C15.0302 20.22 14.6102 20.43 14.1602 20.43C14.1602 20.43 13.0802 20.43 12.0002 20.43C10.9202 20.43 9.84017 20.43 9.84017 20.43C9.39017 20.43 8.97018 20.22 8.70018 19.86C8.68018 19.82 8.66018 19.79 8.63018 19.75C8.12018 18.99 7.90017 18.01 7.62017 17.14C6.90017 14.94 6.37017 12.55 6.84017 10.24C6.93017 9.80999 7.04018 9.39 7.17018 8.97C7.33018 8.47 7.52018 7.99999 7.73018 7.54999C8.73018 5.41999 10.1902 3.90001 11.0802 3.10001C11.3402 2.87001 11.6702 2.75 12.0002 2.75Z" stroke="#1B5F4A" stroke-width="1.5" stroke-linecap="round" stroke-linejoin="round"/>
<path d="M15.3701 19.7496L17.1601 21.0696C17.4301 21.2696 17.7601 21.3096 18.0701 21.1996C18.2001 21.1396 18.3101 21.0696 18.4001 20.9796C18.5301 20.8496 18.6201 20.6896 18.6601 20.4996L19.3001 17.3296C19.3901 16.8996 19.2701 16.4796 19.0001 16.1496L17.2901 14.1596C17.3001 14.1396 17.3001 14.1196 17.3001 14.0996" stroke="#1B5F4A" stroke-width="1.5" stroke-linecap="round" stroke-linejoin="round"/>
<path d="M6.7002 14.1504L4.99018 16.1404C4.72018 16.4704 4.60019 16.9004 4.69019 17.3204L5.33018 20.4904C5.39018 20.8104 5.6202 21.0704 5.9202 21.1904C6.2302 21.3004 6.56018 21.2604 6.83018 21.0604L8.62019 19.7404" stroke="#1B5F4A" stroke-width="1.5" stroke-linecap="round" stroke-linejoin="round"/>
<path d="M12 11.7901C13.0936 11.7901 13.98 10.9036 13.98 9.81009C13.98 8.71657 13.0936 7.83008 12 7.83008C10.9065 7.83008 10.02 8.71657 10.02 9.81009C10.02 10.9036 10.9065 11.7901 12 11.7901Z" stroke="#1B5F4A" stroke-width="1.5" stroke-linecap="round" stroke-linejoin="round"/>
<path d="M8.04004 16.7402H15.96" stroke="#1B5F4A" stroke-width="1.5" stroke-linecap="round" stroke-linejoin="round"/>
</svg>
