<svg width="24" height="24" viewBox="0 0 24 24" fill="none" xmlns="http://www.w3.org/2000/svg">
<path d="M6.86011 4.81V2.75" stroke="#1B5F4A" stroke-width="1.5" stroke-linecap="round" stroke-linejoin="round"/>
<path d="M17.1401 4.81V2.75" stroke="#1B5F4A" stroke-width="1.5" stroke-linecap="round" stroke-linejoin="round"/>
<path d="M18.05 3.78027H5.95C4.18 3.78027 2.75 5.21027 2.75 6.98027V18.0603C2.75 19.8303 4.18 21.2603 5.95 21.2603H18.06C19.83 21.2603 21.26 19.8303 21.26 18.0603V6.98027C21.25 5.21027 19.82 3.78027 18.05 3.78027Z" stroke="#1B5F4A" stroke-width="1.5" stroke-linecap="round" stroke-linejoin="round"/>
<path d="M2.75 7.90039H21.25" stroke="#1B5F4A" stroke-width="1.5" stroke-linecap="round" stroke-linejoin="round"/>
<path d="M18 12C18.5523 12 19 11.5523 19 11C19 10.4477 18.5523 10 18 10C17.4477 10 17 10.4477 17 11C17 11.5523 17.4477 12 18 12Z" fill="#1B5F4A"/>
<path d="M14 12C14.5523 12 15 11.5523 15 11C15 10.4477 14.5523 10 14 10C13.4477 10 13 10.4477 13 11C13 11.5523 13.4477 12 14 12Z" fill="#1B5F4A"/>
<path d="M10 12C10.5523 12 11 11.5523 11 11C11 10.4477 10.5523 10 10 10C9.44772 10 9 10.4477 9 11C9 11.5523 9.44772 12 10 12Z" fill="#1B5F4A"/>
<path d="M6 12C6.55228 12 7 11.5523 7 11C7 10.4477 6.55228 10 6 10C5.44772 10 5 10.4477 5 11C5 11.5523 5.44772 12 6 12Z" fill="#1B5F4A"/>
<path d="M18 15.4902C18.5523 15.4902 19 15.0425 19 14.4902C19 13.9379 18.5523 13.4902 18 13.4902C17.4477 13.4902 17 13.9379 17 14.4902C17 15.0425 17.4477 15.4902 18 15.4902Z" fill="#1B5F4A"/>
<path d="M14 15.4902C14.5523 15.4902 15 15.0425 15 14.4902C15 13.9379 14.5523 13.4902 14 13.4902C13.4477 13.4902 13 13.9379 13 14.4902C13 15.0425 13.4477 15.4902 14 15.4902Z" fill="#1B5F4A"/>
<path d="M10 15.4902C10.5523 15.4902 11 15.0425 11 14.4902C11 13.9379 10.5523 13.4902 10 13.4902C9.44772 13.4902 9 13.9379 9 14.4902C9 15.0425 9.44772 15.4902 10 15.4902Z" fill="#1B5F4A"/>
<path d="M6 15.4902C6.55228 15.4902 7 15.0425 7 14.4902C7 13.9379 6.55228 13.4902 6 13.4902C5.44772 13.4902 5 13.9379 5 14.4902C5 15.0425 5.44772 15.4902 6 15.4902Z" fill="#1B5F4A"/>
<path d="M14 18.9697C14.5523 18.9697 15 18.522 15 17.9697C15 17.4174 14.5523 16.9697 14 16.9697C13.4477 16.9697 13 17.4174 13 17.9697C13 18.522 13.4477 18.9697 14 18.9697Z" fill="#1B5F4A"/>
<path d="M10 18.9697C10.5523 18.9697 11 18.522 11 17.9697C11 17.4174 10.5523 16.9697 10 16.9697C9.44772 16.9697 9 17.4174 9 17.9697C9 18.522 9.44772 18.9697 10 18.9697Z" fill="#1B5F4A"/>
<path d="M6 18.9697C6.55228 18.9697 7 18.522 7 17.9697C7 17.4174 6.55228 16.9697 6 16.9697C5.44772 16.9697 5 17.4174 5 17.9697C5 18.522 5.44772 18.9697 6 18.9697Z" fill="#1B5F4A"/>
</svg>
